<svg width="289" height="289" viewBox="0 0 289 289" fill="none" xmlns="http://www.w3.org/2000/svg">
<rect width="289" height="289" fill="#1C528A"/>
<path d="M266.349 226.422L261.143 250.268H280.228C280.877 250.268 281.403 250.794 281.403 251.443V257.914C281.403 258.563 280.877 259.089 280.228 259.089H259.174L252.903 288.073C252.786 288.614 252.307 289 251.754 289H244.732C243.983 289 243.425 288.309 243.584 287.577L249.748 259.089H218.374L212.103 288.073C211.986 288.614 211.507 289 210.954 289H204.073C203.324 289 202.766 288.309 202.925 287.577L209.088 259.089H188.175C187.526 259.089 187 258.563 187 257.914V251.443C187 250.794 187.526 250.268 188.175 250.268H211.058L216.263 226.422H195.772C195.123 226.422 194.597 225.896 194.597 225.247V218.775C194.597 218.126 195.123 217.6 195.772 217.6H218.233L224.645 187.927C224.762 187.386 225.24 187 225.794 187H232.675C233.424 187 233.982 187.691 233.823 188.423L227.519 217.6H258.892L265.305 187.927C265.421 187.386 265.9 187 266.453 187H273.475C274.224 187 274.782 187.691 274.624 188.423L268.319 217.6H287.825C288.474 217.6 289 218.126 289 218.775V225.247C289 225.896 288.474 226.422 287.825 226.422H266.349ZM256.923 226.422H225.549L220.343 250.268H251.717L256.923 226.422Z" fill="#547DA7"/>
</svg>
