<svg width="289" height="289" viewBox="0 0 289 289" fill="none" xmlns="http://www.w3.org/2000/svg">
<rect width="289" height="289" fill="#FEBF52"/>
<g opacity="0.5" clip-path="url(#clip0_163566_69)">
<path d="M237.997 198.951C236.347 198.951 235.009 200.289 235.009 201.939C235.009 203.589 236.347 204.927 237.997 204.927C247.885 204.927 255.93 212.97 255.93 222.857C255.93 224.507 257.268 225.845 258.918 225.845C260.568 225.845 261.906 224.507 261.906 222.857C261.906 209.675 251.181 198.951 237.997 198.951Z" fill="white"/>
<path d="M230.298 187.802C216.797 190.623 205.85 201.466 202.969 215.051C200.537 226.522 203.534 238.039 211.192 246.648C214.936 250.856 217.083 256.411 217.083 261.904V267.88C217.083 271.857 219.686 275.235 223.277 276.405C224.458 283.382 230.514 288.997 238.001 288.997C245.485 288.997 251.543 283.384 252.724 276.405C256.315 275.235 258.918 271.857 258.918 267.88V261.903C258.918 256.4 261.072 250.912 264.983 246.45C270.707 239.92 273.86 231.541 273.86 222.857C273.86 200.232 253.151 183.028 230.298 187.802ZM238.001 283.021C234.159 283.021 230.791 280.378 229.547 276.825H246.453C245.21 280.378 241.842 283.021 238.001 283.021ZM252.942 267.88C252.942 269.528 251.601 270.868 249.954 270.868H226.047C224.4 270.868 223.059 269.528 223.059 267.88V264.892H252.942V267.88ZM260.489 242.511C256.321 247.266 253.757 252.999 253.106 258.915H222.895C222.246 252.996 219.688 247.206 215.658 242.676C209.276 235.501 206.782 225.883 208.816 216.29C211.19 205.091 220.314 195.994 231.52 193.653C250.65 189.655 267.883 204.021 267.883 222.857C267.883 230.091 265.257 237.071 260.489 242.511Z" fill="white"/>
<path d="M195.965 222.857H189.988C188.338 222.857 187 224.195 187 225.845C187 227.495 188.338 228.833 189.988 228.833H195.965C197.615 228.833 198.953 227.495 198.953 225.845C198.953 224.195 197.615 222.857 195.965 222.857Z" fill="white"/>
<path d="M197.202 207.916L192.976 203.69C191.809 202.523 189.917 202.523 188.75 203.69C187.583 204.857 187.583 206.749 188.75 207.916L192.976 212.142C194.143 213.309 196.035 213.309 197.202 212.142C198.369 210.975 198.369 209.083 197.202 207.916Z" fill="white"/>
<path d="M197.202 239.549C196.035 238.382 194.143 238.382 192.976 239.549L188.75 243.775C187.583 244.942 187.583 246.834 188.75 248.001C189.917 249.168 191.809 249.169 192.976 248.001L197.202 243.775C198.369 242.608 198.369 240.716 197.202 239.549Z" fill="white"/>
<path d="M286.012 222.857H280.035C278.385 222.857 277.047 224.195 277.047 225.845C277.047 227.495 278.385 228.833 280.035 228.833H286.012C287.662 228.833 289 227.495 289 225.845C289 224.195 287.662 222.857 286.012 222.857Z" fill="white"/>
<path d="M287.249 203.69C286.082 202.523 284.19 202.523 283.023 203.69L278.797 207.916C277.63 209.083 277.63 210.975 278.797 212.142C279.964 213.309 281.856 213.309 283.023 212.142L287.249 207.916C288.416 206.749 288.416 204.857 287.249 203.69Z" fill="white"/>
<path d="M287.249 243.775L283.023 239.549C281.856 238.382 279.964 238.382 278.797 239.549C277.63 240.716 277.63 242.608 278.797 243.775L283.023 248.001C284.19 249.168 286.082 249.168 287.249 248.001C288.416 246.834 288.416 244.942 287.249 243.775Z" fill="white"/>
</g>
<defs>
<clipPath id="clip0_163566_69">
<rect width="102" height="102" fill="white" transform="translate(187 187)"/>
</clipPath>
</defs>
</svg>
